<svg width="2040" height="1192" viewBox="0 0 2040 1192" fill="none" xmlns="http://www.w3.org/2000/svg">
<path d="M236.865 254.791H39.6484V159.771H542.432V254.791H345.215V694H236.865V254.791ZM658.643 159.771H766.992L961.133 354.596L1155.27 159.771H1263.62V694H1155.27V309.82L961.133 496.783L766.992 309.82V694H658.643V159.771ZM1440.67 535.064C1460.04 546.002 1479.64 555.914 1499.46 564.801C1519.51 573.46 1540.25 580.865 1561.67 587.018C1583.09 592.942 1605.53 597.499 1629 600.689C1652.7 603.88 1677.88 605.475 1704.54 605.475C1736.67 605.475 1764.01 603.424 1786.57 599.322C1809.13 594.993 1827.47 589.182 1841.6 581.891C1855.96 574.371 1866.32 565.484 1872.71 555.23C1879.31 544.977 1882.62 533.811 1882.62 521.734C1882.62 502.366 1874.53 487.099 1858.35 475.934C1842.17 464.54 1817.22 458.844 1783.5 458.844C1768.68 458.844 1753.08 459.869 1736.67 461.92C1720.26 463.743 1703.63 465.794 1686.77 468.072C1670.13 470.351 1653.61 472.516 1637.21 474.566C1621.03 476.389 1605.76 477.301 1591.41 477.301C1567.48 477.301 1544.47 474.225 1522.36 468.072C1500.49 461.92 1481.01 452.691 1463.92 440.387C1447.05 428.082 1433.61 412.701 1423.58 394.244C1413.56 375.787 1408.54 354.254 1408.54 329.645C1408.54 315.061 1410.48 300.592 1414.36 286.236C1418.46 271.881 1424.84 258.209 1433.5 245.221C1442.38 232.005 1453.78 219.814 1467.68 208.648C1481.58 197.255 1498.32 187.457 1517.92 179.254C1537.74 171.051 1560.53 164.671 1586.28 160.113C1612.26 155.328 1641.76 152.936 1674.8 152.936C1698.73 152.936 1722.77 154.303 1746.92 157.037C1771.08 159.544 1794.55 163.189 1817.33 167.975C1840.35 172.76 1862.45 178.57 1883.64 185.406C1904.83 192.014 1924.54 199.42 1942.77 207.623L1895.26 295.123C1880.22 288.515 1864.05 282.477 1846.73 277.008C1829.41 271.311 1811.3 266.412 1792.38 262.311C1773.47 258.209 1753.87 255.019 1733.59 252.74C1713.54 250.234 1693.03 248.98 1672.07 248.98C1642.22 248.98 1617.61 251.145 1598.24 255.475C1579.1 259.804 1563.83 265.387 1552.44 272.223C1541.05 278.831 1533.07 286.35 1528.52 294.781C1524.19 302.984 1522.02 311.188 1522.02 319.391C1522.02 335.341 1529.2 348.443 1543.55 358.697C1557.91 368.723 1579.79 373.736 1609.18 373.736C1621.03 373.736 1634.59 372.939 1649.85 371.344C1665.35 369.521 1681.53 367.584 1698.39 365.533C1715.48 363.482 1732.8 361.66 1750.34 360.064C1768.12 358.242 1785.32 357.33 1801.95 357.33C1833.4 357.33 1861.2 360.862 1885.35 367.926C1909.73 374.99 1930.13 385.13 1946.53 398.346C1962.94 411.334 1975.36 427.171 1983.79 445.855C1992.22 464.312 1996.44 485.048 1996.44 508.062C1996.44 538.824 1989.26 566.282 1974.9 590.436C1960.77 614.361 1940.49 634.641 1914.06 651.275C1887.86 667.682 1856.18 680.214 1819.04 688.873C1781.9 697.304 1740.54 701.52 1694.97 701.52C1664.89 701.52 1635.5 699.583 1606.79 695.709C1578.08 692.063 1550.5 686.822 1524.07 679.986C1497.87 672.923 1472.8 664.605 1448.88 655.035C1425.18 645.237 1403.19 634.527 1382.91 622.906L1440.67 535.064Z" fill="#28485E"/>
<rect x="237" y="679" width="108" height="348" fill="#28485E"/>
<rect x="659" y="670" width="108" height="522" fill="#28485E"/>
</svg>
